<svg version="1.1" xmlns="http://www.w3.org/2000/svg" width="512" height="512" viewBox="0 0 512 512">
<g fill="#D4AF37">
<path d="M256 50c-113.7 0-206 92.3-206 206s92.3 206 206 206 206-92.3 206-206S369.7 50 256 50zm0 360c-85 0-154-69-154-154s69-154 154-154 154 69 154 154-69 154-154 154z"/>
<path d="M256 150c-20 0-35 15-35 35 0 15 10 28 25 33v94c0 20 15 35 35 35s35-15 35-35v-94c15-5 25-18 25-33 0-20-15-35-35-35z"/>
<rect x="220" y="280" width="72" height="20" rx="10"/>
<rect x="200" y="300" width="112" height="8" rx="4"/>
</g>
</svg>